# xmcd CD database file
# Copyright (C) 1993-1998 Ti Kan
# 
# Track frame offsets:
#     150
#     20573
#     36135
#     51570
#     76185
#     94665
#     118178
#     132658
#     154458
#     172965
# 
# Disc length: 2507 seconds
# 
# Revision: 1
# Processed by: cddbd v1.4b41PL1 Copyright (c) Steve Scherf et al.
# Submitted via: DiscPlay 4.0.4
# 
DISCID=8609c90a
DTITLE=Luther "Houserocker" Johnson - Takin' A Bite Outta The Blues
DYEAR=1900
DGENRE=
TTITLE0=Little Car Blues
TTITLE1=Trouble Blues
TTITLE2=Pretty Thing
TTITLE3=Cyrin' and Thinkin'
TTITLE4=Rock Me Baby
TTITLE5=Where Can My Baby Be
TTITLE6=Big Money
TTITLE7=Hi-Heel Sneekers/I'm Goin' Upside Your Head
TTITLE8=What'd I Say
TTITLE9=Hush, Hush
EXTD=
EXTT0=
EXTT1=
EXTT2=
EXTT3=
EXTT4=
EXTT5=
EXTT6=
EXTT7=
EXTT8=
EXTT9=
PLAYORDER=
